# xmcd
#
# Track frame offsets:
#	150
#	14360
#	19029
#	21447
#	22366
#	36070
#	49793
#	54459
#	59134
#	61553
#	63972
#	64892
#	65813
#	79736
#	84404
#	86822
#	87741
#	101944
#	106613
#	109032
#	109948
#	124299
#	128966
#	131384
#	132303
#	146312
#	150981
#	153400
#	154319
#	168409
#	182424
#	187093
#	191762
#	194182
#	196601
#	197892
#	199190
#	213584
#	218253
#	220665
#	221584
#	235467
#	240136
#	242556
#	243475
#	257013
#	270570
#	275239
#	279912
#	282332
#	284751
#	285670
#	286586
#	300573
#	305240
#	307660
#	308581
#	322283
#	326945
#	329359
#
# Disc length: 4409 seconds
#
# Revision: 0
# Processed by: cddbd v1.4PL0 Copyright (c) Steve Scherf et al.
# Submitted via: audiograbber 1.81.03
#
DISCID=9611373c
DTITLE=Flying Hands - Country Fresh
DYEAR=2001
DGENRE=
TTITLE0=Pocket Full of Change full
TTITLE1=Pocket Full of Change 60
TTITLE2=Pocket Full of Change 30
TTITLE3=Pocket Full of Change 10
TTITLE4=Rodeo Roundup full a
TTITLE5=Rodeo Roundup full b
TTITLE6=Rodeo Roundup 60 a
TTITLE7=Rodeo Roundup 60 b
TTITLE8=Rodeo Roundup 30 a
TTITLE9=Rodeo Roundup 30 b
TTITLE10=Rodeo Roundup 10 a
TTITLE11=Rodeo Roundup 10 b
TTITLE12=Crazy Train full
TTITLE13=Crazy Train 60
TTITLE14=Crazy Train 30
TTITLE15=Crazy Train 10
TTITLE16=The Last Dance full 
TTITLE17=The Last Dance 60
TTITLE18=The Last Dance 30
TTITLE19=The Last Dance 10
TTITLE20=Bird with a Broken Wing full
TTITLE21=Bird with a Broken Wing 60
TTITLE22=Bird with a Broken Wing 30
TTITLE23=Bird with a Broken Wing 10
TTITLE24=Getting Over You  full
TTITLE25=Getting Over You 60
TTITLE26=Getting Over You 30
TTITLE27=Getting Over You 10
TTITLE28=Muddy Boots at my Door full a
TTITLE29=Muddy Boots at my Door full b
TTITLE30=Muddy Boots at my Door 60 a
TTITLE31=Muddy Boots at my Door 60 b
TTITLE32=Muddy Boots at my Door 30 a
TTITLE33=Muddy Boots at my Door 30 b
TTITLE34=Muddy Boots at my Door 15 a
TTITLE35=Muddy Boots at my Door 15 b
TTITLE36=Tennessee Girl  full
TTITLE37=Tennessee Girl 60
TTITLE38=Tennessee Girl 30
TTITLE39=Tennessee Girl 10
TTITLE40=Texas Ranger full
TTITLE41=Texas Ranger 60
TTITLE42=Texas Ranger 30
TTITLE43=Texas Ranger 10
TTITLE44=Four Way Stomp full a
TTITLE45=Four Way Stomp full b
TTITLE46=Four Way Stomp 60 a
TTITLE47=Four Way Stomp 60 b
TTITLE48=Four Way Stomp 30 a
TTITLE49=Four Way Stomp 30 b
TTITLE50=Four Way Stomp 10 a
TTITLE51=Four Way Stomp 10 b
TTITLE52=Swinging Doors full
TTITLE53=Swinging Doors 60
TTITLE54=Swinging Doors 30
TTITLE55=Swinging Doors 10
TTITLE56=Sand in My Shorts full
TTITLE57=Sand in My Shorts 60
TTITLE58=Sand in My Shorts 30
TTITLE59=Sand in My Shorts 10
EXTD=
EXTT0=
EXTT1=
EXTT2=
EXTT3=
EXTT4=
EXTT5=
EXTT6=
EXTT7=
EXTT8=
EXTT9=
EXTT10=
EXTT11=
EXTT12=
EXTT13=
EXTT14=
EXTT15=
EXTT16=
EXTT17=
EXTT18=
EXTT19=
EXTT20=
EXTT21=
EXTT22=
EXTT23=
EXTT24=
EXTT25=
EXTT26=
EXTT27=
EXTT28=
EXTT29=
EXTT30=
EXTT31=
EXTT32=
EXTT33=
EXTT34=
EXTT35=
EXTT36=
EXTT37=
EXTT38=
EXTT39=
EXTT40=
EXTT41=
EXTT42=
EXTT43=
EXTT44=
EXTT45=
EXTT46=
EXTT47=
EXTT48=
EXTT49=
EXTT50=
EXTT51=
EXTT52=
EXTT53=
EXTT54=
EXTT55=
EXTT56=
EXTT57=
EXTT58=
EXTT59=
PLAYORDER=
